<svg viewBox="0 0 700 420" xmlns="http://www.w3.org/2000/svg" font-family="IBM Plex Mono, monospace">
<rect x="0" y="0" width="700" height="420" fill="#080C15"/>
<text x="50" y="24" font-size="13" fill="#EDE7D8">Maximum Drawdown by Sector (%)</text>
<line x1="50" y1="360" x2="670" y2="360" stroke="#1E293F" stroke-width="1"/>
<rect x="65.94285714285714" y="216.29090909090908" width="24.8" height="143.70909090909092" fill="#FF5D5D" rx="2"/>
<rect x="97.82857142857142" y="234.9090909090909" width="24.8" height="125.0909090909091" fill="#E8A33D" rx="2"/>
<text x="78.34285714285714" y="210.29090909090908" font-size="8.5" fill="#5B6376" text-anchor="middle">-24.7%</text>
<text x="110.22857142857143" y="228.9090909090909" font-size="8.5" fill="#5B6376" text-anchor="middle">-21.5%</text>
<text x="94.28571428571428" y="378" font-size="9" fill="#5B6376" text-anchor="middle">Con. Staples</text>
<rect x="154.5142857142857" y="204.65454545454546" width="24.8" height="155.34545454545454" fill="#FF5D5D" rx="2"/>
<rect x="186.39999999999998" y="213.96363636363634" width="24.8" height="146.03636363636366" fill="#E8A33D" rx="2"/>
<text x="166.9142857142857" y="198.65454545454546" font-size="8.5" fill="#5B6376" text-anchor="middle">-26.7%</text>
<text x="198.79999999999998" y="207.96363636363634" font-size="8.5" fill="#5B6376" text-anchor="middle">-25.1%</text>
<text x="182.85714285714283" y="378" font-size="9" fill="#5B6376" text-anchor="middle">Healthcare</text>
<rect x="243.0857142857143" y="185.45454545454547" width="24.8" height="174.54545454545453" fill="#FF5D5D" rx="2"/>
<rect x="274.9714285714286" y="133.6727272727273" width="24.8" height="226.3272727272727" fill="#E8A33D" rx="2"/>
<text x="255.4857142857143" y="179.45454545454547" font-size="8.5" fill="#5B6376" text-anchor="middle">-30.0%</text>
<text x="287.37142857142857" y="127.67272727272729" font-size="8.5" fill="#5B6376" text-anchor="middle">-38.9%</text>
<text x="271.42857142857144" y="378" font-size="9" fill="#5B6376" text-anchor="middle">Technology</text>
<rect x="331.65714285714284" y="128.43636363636364" width="24.8" height="231.56363636363636" fill="#FF5D5D" rx="2"/>
<rect x="363.54285714285714" y="165.09090909090907" width="24.8" height="194.90909090909093" fill="#E8A33D" rx="2"/>
<text x="344.0571428571428" y="122.43636363636364" font-size="8.5" fill="#5B6376" text-anchor="middle">-39.8%</text>
<text x="375.9428571428571" y="159.09090909090907" font-size="8.5" fill="#5B6376" text-anchor="middle">-33.5%</text>
<text x="360.0" y="378" font-size="9" fill="#5B6376" text-anchor="middle">Financial</text>
<rect x="420.2285714285714" y="91.19999999999999" width="24.8" height="268.8" fill="#FF5D5D" rx="2"/>
<rect x="452.1142857142857" y="193.6" width="24.8" height="166.4" fill="#E8A33D" rx="2"/>
<text x="432.6285714285714" y="85.19999999999999" font-size="8.5" fill="#5B6376" text-anchor="middle">-46.2%</text>
<text x="464.5142857142857" y="187.6" font-size="8.5" fill="#5B6376" text-anchor="middle">-28.6%</text>
<text x="448.57142857142856" y="378" font-size="9" fill="#5B6376" text-anchor="middle">Defense</text>
<rect x="508.79999999999995" y="63.85454545454547" width="24.8" height="296.1454545454545" fill="#FF5D5D" rx="2"/>
<rect x="540.6857142857143" y="163.9272727272727" width="24.8" height="196.0727272727273" fill="#E8A33D" rx="2"/>
<text x="521.1999999999999" y="57.85454545454547" font-size="8.5" fill="#5B6376" text-anchor="middle">-50.9%</text>
<text x="553.0857142857143" y="157.9272727272727" font-size="8.5" fill="#5B6376" text-anchor="middle">-33.7%</text>
<text x="537.1428571428571" y="378" font-size="9" fill="#5B6376" text-anchor="middle">Energy</text>
<rect x="597.3714285714286" y="169.16363636363639" width="24.8" height="190.83636363636361" fill="#FF5D5D" rx="2"/>
<rect x="629.2571428571429" y="217.45454545454547" width="24.8" height="142.54545454545453" fill="#E8A33D" rx="2"/>
<text x="609.7714285714286" y="163.16363636363639" font-size="8.5" fill="#5B6376" text-anchor="middle">-32.8%</text>
<text x="641.6571428571428" y="211.45454545454547" font-size="8.5" fill="#5B6376" text-anchor="middle">-24.5%</text>
<text x="625.7142857142858" y="378" font-size="9" fill="#5B6376" text-anchor="middle">Index</text>
<rect x="50" y="397" width="10" height="10" fill="#FF5D5D"/>
<text x="66" y="406" font-size="10" fill="#5B6376">Covid-19</text>
<rect x="160" y="397" width="10" height="10" fill="#E8A33D"/>
<text x="176" y="406" font-size="10" fill="#5B6376">Bear Market</text>
</svg>