<svg viewBox="0 0 620 460" xmlns="http://www.w3.org/2000/svg" font-family="IBM Plex Mono, monospace">
<rect x="0" y="0" width="620" height="460" fill="#080C15"/>
<text x="130" y="18" font-size="11" fill="#5B6376">COVID-19</text>
<text x="520" y="18" font-size="11" fill="#5B6376" text-anchor="end">BEAR MARKET</text>
<line x1="116" y1="30.0" x2="534" y2="30.0" stroke="#1E293F" stroke-width="1"/>
<text x="108" y="33.0" font-size="9" fill="#5B6376" text-anchor="end">0%</text>
<line x1="116" y1="99.0909090909091" x2="534" y2="99.0909090909091" stroke="#1E293F" stroke-width="1"/>
<text x="108" y="102.0909090909091" font-size="9" fill="#5B6376" text-anchor="end">-10%</text>
<line x1="116" y1="168.1818181818182" x2="534" y2="168.1818181818182" stroke="#1E293F" stroke-width="1"/>
<text x="108" y="171.1818181818182" font-size="9" fill="#5B6376" text-anchor="end">-20%</text>
<line x1="116" y1="237.27272727272725" x2="534" y2="237.27272727272725" stroke="#1E293F" stroke-width="1"/>
<text x="108" y="240.27272727272725" font-size="9" fill="#5B6376" text-anchor="end">-30%</text>
<line x1="116" y1="306.3636363636364" x2="534" y2="306.3636363636364" stroke="#1E293F" stroke-width="1"/>
<text x="108" y="309.3636363636364" font-size="9" fill="#5B6376" text-anchor="end">-40%</text>
<line x1="116" y1="375.45454545454544" x2="534" y2="375.45454545454544" stroke="#1E293F" stroke-width="1"/>
<text x="108" y="378.45454545454544" font-size="9" fill="#5B6376" text-anchor="end">-50%</text>
<line x1="130" y1="200.65454545454546" x2="520" y2="178.54545454545456" stroke="#6FCF97" stroke-width="2.5" opacity="0.9"/>
<circle cx="130" cy="200.65454545454546" r="4.5" fill="#6FCF97"/>
<circle cx="520" cy="178.54545454545456" r="4.5" fill="#6FCF97"/>
<text x="108" y="203.65454545454546" font-size="10" fill="#6FCF97" text-anchor="end">-24.7%</text>
<text x="542" y="181.54545454545456" font-size="10" fill="#6FCF97" text-anchor="start">-21.5%</text>
<text x="582" y="181.54545454545456" font-size="10" fill="#5B6376" text-anchor="start">Consumer Staples</text>
<line x1="130" y1="214.47272727272727" x2="520" y2="203.41818181818184" stroke="#56CCF2" stroke-width="2.5" opacity="0.9"/>
<circle cx="130" cy="214.47272727272727" r="4.5" fill="#56CCF2"/>
<circle cx="520" cy="203.41818181818184" r="4.5" fill="#56CCF2"/>
<text x="108" y="217.47272727272727" font-size="10" fill="#56CCF2" text-anchor="end">-26.7%</text>
<text x="542" y="206.41818181818184" font-size="10" fill="#56CCF2" text-anchor="start">-25.1%</text>
<text x="582" y="206.41818181818184" font-size="10" fill="#5B6376" text-anchor="start">Healthcare</text>
<line x1="130" y1="237.27272727272725" x2="520" y2="298.76363636363635" stroke="#BB86FC" stroke-width="2.5" opacity="0.9"/>
<circle cx="130" cy="237.27272727272725" r="4.5" fill="#BB86FC"/>
<circle cx="520" cy="298.76363636363635" r="4.5" fill="#BB86FC"/>
<text x="108" y="240.27272727272725" font-size="10" fill="#BB86FC" text-anchor="end">-30.0%</text>
<text x="542" y="301.76363636363635" font-size="10" fill="#BB86FC" text-anchor="start">-38.9%</text>
<text x="582" y="301.76363636363635" font-size="10" fill="#5B6376" text-anchor="start">Technology</text>
<line x1="130" y1="304.9818181818182" x2="520" y2="261.4545454545455" stroke="#F2C94C" stroke-width="2.5" opacity="0.9"/>
<circle cx="130" cy="304.9818181818182" r="4.5" fill="#F2C94C"/>
<circle cx="520" cy="261.4545454545455" r="4.5" fill="#F2C94C"/>
<text x="108" y="307.9818181818182" font-size="10" fill="#F2C94C" text-anchor="end">-39.8%</text>
<text x="542" y="264.4545454545455" font-size="10" fill="#F2C94C" text-anchor="start">-33.5%</text>
<text x="582" y="264.4545454545455" font-size="10" fill="#5B6376" text-anchor="start">Financial</text>
<line x1="130" y1="349.20000000000005" x2="520" y2="227.6" stroke="#B9A46B" stroke-width="2.5" opacity="0.9"/>
<circle cx="130" cy="349.20000000000005" r="4.5" fill="#B9A46B"/>
<circle cx="520" cy="227.6" r="4.5" fill="#B9A46B"/>
<text x="108" y="352.20000000000005" font-size="10" fill="#B9A46B" text-anchor="end">-46.2%</text>
<text x="542" y="230.6" font-size="10" fill="#B9A46B" text-anchor="start">-28.6%</text>
<text x="582" y="230.6" font-size="10" fill="#5B6376" text-anchor="start">Defense</text>
<line x1="130" y1="381.6727272727273" x2="520" y2="262.83636363636367" stroke="#FF8A4C" stroke-width="2.5" opacity="0.9"/>
<circle cx="130" cy="381.6727272727273" r="4.5" fill="#FF8A4C"/>
<circle cx="520" cy="262.83636363636367" r="4.5" fill="#FF8A4C"/>
<text x="108" y="384.6727272727273" font-size="10" fill="#FF8A4C" text-anchor="end">-50.9%</text>
<text x="542" y="265.83636363636367" font-size="10" fill="#FF8A4C" text-anchor="start">-33.7%</text>
<text x="582" y="265.83636363636367" font-size="10" fill="#5B6376" text-anchor="start">Energy</text>
<line x1="130" y1="256.6181818181818" x2="520" y2="199.27272727272725" stroke="#8892A6" stroke-width="2.5" opacity="0.9"/>
<circle cx="130" cy="256.6181818181818" r="4.5" fill="#8892A6"/>
<circle cx="520" cy="199.27272727272725" r="4.5" fill="#8892A6"/>
<text x="108" y="259.6181818181818" font-size="10" fill="#8892A6" text-anchor="end">-32.8%</text>
<text x="542" y="202.27272727272725" font-size="10" fill="#8892A6" text-anchor="start">-24.5%</text>
<text x="582" y="202.27272727272725" font-size="10" fill="#5B6376" text-anchor="start">S&P 500 (SPY)</text>
</svg>